{"title":"Everyday 2010 XviD DVDRip SAFCuk009 {DragonTrG}","uid":6176689,"size":1089425506,"categoryP":"video","categoryS":"movies","magnet":"?xt=urn:btih:b7a5ec6a61f259c1807f6038ffa30d41c6a89294&amp;dn=Everyday+2010+XviD+DVDRip+SAFCuk009+%7BDragonTrG%7D&amp;tr=udp%3A%2F%2Ftracker.openbittorrent.com%3A80&amp;tr=udp%3A%2F%2Fopen.demonii.com%3A1337&amp;tr=udp%3A%2F%2Ftracker.coppersurfer.tk%3A6969&amp;tr=udp%3A%2F%2Fexodus.desync.com%3A6969","seeders":0,"leechers":0,"uploader":"SAFCukO09","files":3,"time":1297793613,"description":"Format : AVI\nFormat/Info : Audio Video Interleave\nFile size : 1.01 GiB\nDuration : 1h 29mn\nOverall bit rate : 1 624 Kbps\nWriting application : VirtualDubMod 1.5.10.2 (build 2540/release)\nWriting library : VirtualDub build 32839/release\n\nVideo\nID : 0\nFormat : MPEG-4 Visual\nFormat profile : Advanced Simple@L5\nFormat settings, BVOP : Yes\nFormat settings, QPel : No\nFormat settings, GMC : No warppoints\nFormat settings, Matrix : Custom\nCodec ID : XVID\nCodec ID/Hint : XviD\nDuration : 1h 29mn\nBit rate : 1 166 Kbps\nWidth : 692 pixels\nHeight : 384 pixels\nDisplay aspect ratio : 16:9\nFrame rate : 25.000 fps\nColor space : YUV\nChroma subsampling : 4:2:0\nBit depth : 8 bits\nScan type : Progressive\nBits/(Pixel*Frame) : 0.176\nStream size : 746 MiB (72%)\nWriting library : XviD 1.2.1 (UTC 2008-12-04)\n\nAudio\nID : 1\nFormat : AC-3\nFormat/Info : Audio Coding 3\nMode extension : CM (complete main)\nCodec ID : 2000\nDuration : 1h 29mn\nBit rate mode : Constant\nBit rate : 448 Kbps\nChannel(s) : 6 channels\nChannel positions : Front: L C R, Side: L R, LFE\nSampling rate : 48.0 KHz\nBit depth : 16 bits\nStream size : 287 MiB (28%)\nAlignment : Split accross interleaves\nInterleave, duration : 40 ms (1.00 video frame)\nInterleave, preload duration : 500 ms\n\n &lt;a href=&quot;\nhttp://www.imdb.com/title/tt1301990/&quot; rel=&quot;nofollow&quot; target=&quot;_NEW&quot;&gt;\nhttp://www.imdb.com/title/tt1301990/&lt;/a&gt;\n\nUsers: 5.8/10 (311 votes) 2 reviews | Critics: 31 reviews Metascore: 48/100 (based on 12 reviews from Metacritic.com)\n\n\n\nDirector:\nRichard Levine\nWriter:\nRichard Levine\nStars:\nCarla Gugino, Liev Schreiber and Helen Hunt\n\nNed (Liev Schreiber) is in the throes of a mid-life crisis. His work as a writer on an outrageous, semi-pornographic TV show is less than satisfying. His fifteen year old son has just told him he is gay and his eleven year old is afraid of, well pretty much everything. When his wife, Jeannie (Helen Hunt), moves her sick and embittered father (Brian Dennehy) from Detroit into their home in NY, it puts added stress on an already strained marriage. And when a sexy female co-worker (Carla Gugino) puts the moves on Ned, the temptation sends him spiraling. EVERY DAY is about one family's struggle to survive the unexpected curve-balls that are simply part of real life; aging and death; commitment and freedom; love and acceptance. It's an uncompromising look at an ordinary family making an extraordinary journey towards themselves and towards each other.\n","torrent":{"xt":"urn:btih:b7a5ec6a61f259c1807f6038ffa30d41c6a89294","amp;dn":"Everyday+2010+XviD+DVDRip+SAFCuk009+%7BDragonTrG%7D","amp;tr":["udp%3A%2F%2Ftracker.openbittorrent.com%3A80","udp%3A%2F%2Fopen.demonii.com%3A1337","udp%3A%2F%2Ftracker.coppersurfer.tk%3A6969","udp%3A%2F%2Fexodus.desync.com%3A6969"],"infoHash":"b7a5ec6a61f259c1807f6038ffa30d41c6a89294","infoHashBuffer":{"type":"Buffer","data":[183,165,236,106,97,242,89,193,128,127,96,56,255,163,13,65,198,168,146,148]},"announce":[],"urlList":[]}}